<svg version="1.1" viewBox="0.0 0.0 100.0 100.0" fill="none" stroke="none" stroke-linecap="square" stroke-miterlimit="10" xmlns:xlink="http://www.w3.org/1999/xlink" xmlns="http://www.w3.org/2000/svg"><clipPath id="p.0"><path d="m0 0l100.0 0l0 100.0l-100.0 0l0 -100.0z" clip-rule="nonzero"/></clipPath><g clip-path="url(#p.0)"><path fill="#000000" fill-opacity="0.0" d="m0 0l100.0 0l0 100.0l-100.0 0z" fill-rule="evenodd"/><path fill="#efefef" d="m5.7378306 50.738846l0 0c0 -24.3962 19.777027 -44.17323 44.17323 -44.17323l0 0c11.715466 0 22.9511 4.6539516 31.235188 12.93804c8.284088 8.284086 12.938042 19.51972 12.938042 31.23519l0 0c0 24.396202 -19.77703 44.173225 -44.17323 44.173225l0 0c-24.396202 0 -44.17323 -19.777023 -44.17323 -44.173225z" fill-rule="evenodd"/><path stroke="#000000" stroke-width="1.0" stroke-linejoin="round" stroke-linecap="butt" d="m5.7378306 50.738846l0 0c0 -24.3962 19.777027 -44.17323 44.17323 -44.17323l0 0c11.715466 0 22.9511 4.6539516 31.235188 12.93804c8.284088 8.284086 12.938042 19.51972 12.938042 31.23519l0 0c0 24.396202 -19.77703 44.173225 -44.17323 44.173225l0 0c-24.396202 0 -44.17323 -19.777023 -44.17323 -44.173225z" fill-rule="evenodd"/><path fill="#000000" fill-opacity="0.0" d="m5.3070865 -0.001312336l89.38583 0l0 89.480316l-89.38583 0z" fill-rule="evenodd"/><path fill="#d9d9d9" d="m73.21101 73.36072q0.34375 0.921875 0.359375 1.5q0.015625 0.578125 -0.328125 0.875q-0.328125 0.28125 -1.109375 0.359375q-0.78125 0.09375 -2.09375 0.09375q-1.3124924 0 -2.0937424 -0.0625q-0.78125 -0.0625 -1.1875 -0.203125q-0.40625 -0.15625 -0.59375 -0.40625q-0.1875 -0.25 -0.359375 -0.640625l-4.703125 -13.328125l-22.765625 0l-4.484375 13.15625q-0.125 0.390625 -0.34375 0.671875q-0.203125 0.265625 -0.609375 0.453125q-0.390625 0.1875 -1.140625 0.265625q-0.734375 0.09375 -1.921875 0.09375q-1.21875 0 -2.015625 -0.109375q-0.78125 -0.09375 -1.09375 -0.390625q-0.3125 -0.296875 -0.296875 -0.859375q0.015625 -0.578125 0.359375 -1.515625l18.359375 -50.859375q0.171875 -0.46875 0.4375 -0.765625q0.28125 -0.296875 0.8125 -0.453125q0.53125 -0.171875 1.359375 -0.234375q0.828125 -0.0625 2.09375 -0.0625q1.359375 0 2.234375 0.0625q0.890625 0.0625 1.4375 0.234375q0.5625 0.15625 0.859375 0.484375q0.296875 0.3125 0.46875 0.78125l18.359367 50.859375zm-23.578117 -44.890625l-0.03125 0l-9.4375 27.28125l19.03125 0l-9.5625 -27.28125z" fill-rule="nonzero"/><path fill="#d9ead3" d="m27.64567 68.11183l0 -10.858143c0 1.1993599 9.9690075 2.1716309 22.266405 2.1716309c12.297394 0 22.2664 -0.97227097 22.2664 -2.1716309l0 10.858143l0 0c0 1.1993637 -9.969006 2.1716309 -22.2664 2.1716309c-12.297398 0 -22.266405 -0.97226715 -22.266405 -2.1716309z" fill-rule="evenodd"/><path stroke="#000000" stroke-width="1.0" stroke-linejoin="round" stroke-linecap="butt" d="m27.64567 68.11183l0 -10.858143c0 1.1993599 9.9690075 2.1716309 22.266405 2.1716309c12.297394 0 22.2664 -0.97227097 22.2664 -2.1716309l0 10.858143l0 0c0 1.1993637 -9.969006 2.1716309 -22.2664 2.1716309c-12.297398 0 -22.266405 -0.97226715 -22.266405 -2.1716309z" fill-rule="evenodd"/><path fill="#d9ead3" d="m27.64567 42.052288l0 -10.858147c0 1.1993599 9.9690075 2.1716309 22.266405 2.1716309c12.297394 0 22.2664 -0.97227097 22.2664 -2.1716309l0 10.858147l0 0c0 1.1993561 -9.969006 2.171627 -22.2664 2.171627c-12.297398 0 -22.266405 -0.97227097 -22.266405 -2.171627z" fill-rule="evenodd"/><path stroke="#000000" stroke-width="1.0" stroke-linejoin="round" stroke-linecap="butt" d="m27.64567 42.052288l0 -10.858147c0 1.1993599 9.9690075 2.1716309 22.266405 2.1716309c12.297394 0 22.2664 -0.97227097 22.2664 -2.1716309l0 10.858147l0 0c0 1.1993561 -9.969006 2.171627 -22.2664 2.171627c-12.297398 0 -22.266405 -0.97227097 -22.266405 -2.171627z" fill-rule="evenodd"/><path fill="#cfe2f3" d="m27.64567 55.08206l0 -10.858147c0 1.1993599 9.9690075 2.1716309 22.266405 2.1716309c12.297394 0 22.2664 -0.97227097 22.2664 -2.1716309l0 10.858147l0 0c0 1.1993561 -9.969006 2.171627 -22.2664 2.171627c-12.297398 0 -22.266405 -0.97227097 -22.266405 -2.171627z" fill-rule="evenodd"/><path stroke="#000000" stroke-width="1.0" stroke-linejoin="round" stroke-linecap="butt" d="m27.64567 55.08206l0 -10.858147c0 1.1993599 9.9690075 2.1716309 22.266405 2.1716309c12.297394 0 22.2664 -0.97227097 22.2664 -2.1716309l0 10.858147l0 0c0 1.1993561 -9.969006 2.171627 -22.2664 2.171627c-12.297398 0 -22.266405 -0.97227097 -22.266405 -2.171627z" fill-rule="evenodd"/><path fill="#cfe2f3" d="m27.64567 28.853018l0 0c0 -0.6181412 2.346056 -1.2109661 6.5220623 -1.6480598c4.1760063 -0.43709183 9.83989 -0.6826477 15.745655 -0.6826477l0 0c12.298119 0 22.267712 1.0434933 22.267712 2.3307076l0 0c0 1.2872162 -9.969593 2.3307095 -22.267712 2.3307095l0 0c-12.298122 0 -22.267717 -1.0434933 -22.267717 -2.3307095z" fill-rule="evenodd"/><path stroke="#000000" stroke-width="1.0" stroke-linejoin="round" stroke-linecap="butt" d="m27.64567 28.853018l0 0c0 -0.6181412 2.346056 -1.2109661 6.5220623 -1.6480598c4.1760063 -0.43709183 9.83989 -0.6826477 15.745655 -0.6826477l0 0c12.298119 0 22.267712 1.0434933 22.267712 2.3307076l0 0c0 1.2872162 -9.969593 2.3307095 -22.267712 2.3307095l0 0c-12.298122 0 -22.267717 -1.0434933 -22.267717 -2.3307095z" fill-rule="evenodd"/><path fill="#000000" fill-opacity="0.0" d="m18.675869 81.97404l27.559055 -42.456696" fill-rule="evenodd"/><path stroke="#000000" stroke-width="1.0" stroke-linejoin="round" stroke-linecap="butt" d="m18.675869 81.97404l27.559055 -42.456696" fill-rule="evenodd"/><path fill="#000000" fill-opacity="0.0" d="m46.23622 39.51706l7.5275574 23.748032" fill-rule="evenodd"/><path stroke="#000000" stroke-width="1.0" stroke-linejoin="round" stroke-linecap="butt" d="m46.23622 39.51706l7.5275574 23.748032" fill-rule="evenodd"/><path fill="#000000" fill-opacity="0.0" d="m53.5242 63.188694l27.622047 -43.685036" fill-rule="evenodd"/><path stroke="#000000" stroke-width="1.0" stroke-linejoin="round" stroke-linecap="butt" d="m53.5242 63.188694l25.790512 -40.788414" fill-rule="evenodd"/><path fill="#000000" stroke="#000000" stroke-width="1.0" stroke-linecap="butt" d="m79.31471 22.400276l0.3495102 1.5515232l0.7007446 -3.2125225l-2.6017761 2.0105038z" fill-rule="evenodd"/><path fill="#f4cccc" d="m44.317585 39.354332l0 0c0 -0.98280716 0.7967224 -1.7795296 1.7795296 -1.7795296l0 0c0.47195816 0 0.92458725 0.18748474 1.258316 0.52121353c0.33372498 0.33372498 0.5212097 0.78635406 0.5212097 1.258316l0 0c0 0.98280334 -0.7967224 1.7795258 -1.7795258 1.7795258l0 0c-0.98280716 0 -1.7795296 -0.7967224 -1.7795296 -1.7795258z" fill-rule="evenodd"/><path stroke="#000000" stroke-width="1.0" stroke-linejoin="round" stroke-linecap="butt" d="m44.317585 39.354332l0 0c0 -0.98280716 0.7967224 -1.7795296 1.7795296 -1.7795296l0 0c0.47195816 0 0.92458725 0.18748474 1.258316 0.52121353c0.33372498 0.33372498 0.5212097 0.78635406 0.5212097 1.258316l0 0c0 0.98280334 -0.7967224 1.7795258 -1.7795258 1.7795258l0 0c-0.98280716 0 -1.7795296 -0.7967224 -1.7795296 -1.7795258z" fill-rule="evenodd"/><path fill="#f4cccc" d="m51.952755 63.120735l0 0c0 -0.98280716 0.7967224 -1.7795296 1.7795296 -1.7795296l0 0c0.47195816 0 0.92458725 0.18748856 1.258316 0.52121353c0.33372498 0.33372498 0.5212097 0.78635406 0.5212097 1.258316l0 0c0 0.98280334 -0.7967224 1.7795258 -1.7795258 1.7795258l0 0c-0.98280716 0 -1.7795296 -0.7967224 -1.7795296 -1.7795258z" fill-rule="evenodd"/><path stroke="#000000" stroke-width="1.0" stroke-linejoin="round" stroke-linecap="butt" d="m51.952755 63.120735l0 0c0 -0.98280716 0.7967224 -1.7795296 1.7795296 -1.7795296l0 0c0.47195816 0 0.92458725 0.18748856 1.258316 0.52121353c0.33372498 0.33372498 0.5212097 0.78635406 0.5212097 1.258316l0 0c0 0.98280334 -0.7967224 1.7795258 -1.7795258 1.7795258l0 0c-0.98280716 0 -1.7795296 -0.7967224 -1.7795296 -1.7795258z" fill-rule="evenodd"/></g></svg>