<svg version="1.1" viewBox="0.0 0.0 270.51706036745406 100.0" fill="none" stroke="none" stroke-linecap="square" stroke-miterlimit="10" xmlns:xlink="http://www.w3.org/1999/xlink" xmlns="http://www.w3.org/2000/svg"><clipPath id="p.0"><path d="m0 0l270.51706 0l0 100.0l-270.51706 0l0 -100.0z" clip-rule="nonzero"/></clipPath><g clip-path="url(#p.0)"><path fill="#000000" fill-opacity="0.0" d="m0 0l270.51706 0l0 100.0l-270.51706 0z" fill-rule="evenodd"/><path fill="#efefef" d="m5.7378306 50.738846l0 0c0 -24.3962 19.777027 -44.17323 44.17323 -44.17323l0 0c11.715466 0 22.9511 4.6539516 31.235188 12.93804c8.284088 8.284086 12.938042 19.51972 12.938042 31.23519l0 0c0 24.396202 -19.77703 44.173225 -44.17323 44.173225l0 0c-24.396202 0 -44.17323 -19.777023 -44.17323 -44.173225z" fill-rule="evenodd"/><path stroke="#000000" stroke-width="1.0" stroke-linejoin="round" stroke-linecap="butt" d="m5.7378306 50.738846l0 0c0 -24.3962 19.777027 -44.17323 44.17323 -44.17323l0 0c11.715466 0 22.9511 4.6539516 31.235188 12.93804c8.284088 8.284086 12.938042 19.51972 12.938042 31.23519l0 0c0 24.396202 -19.77703 44.173225 -44.17323 44.173225l0 0c-24.396202 0 -44.17323 -19.777023 -44.17323 -44.173225z" fill-rule="evenodd"/><path fill="#000000" fill-opacity="0.0" d="m5.3070865 -0.001312336l89.38583 0l0 89.480316l-89.38583 0z" fill-rule="evenodd"/><path fill="#d9d9d9" d="m73.21101 73.36072q0.34375 0.921875 0.359375 1.5q0.015625 0.578125 -0.328125 0.875q-0.328125 0.28125 -1.109375 0.359375q-0.78125 0.09375 -2.09375 0.09375q-1.3124924 0 -2.0937424 -0.0625q-0.78125 -0.0625 -1.1875 -0.203125q-0.40625 -0.15625 -0.59375 -0.40625q-0.1875 -0.25 -0.359375 -0.640625l-4.703125 -13.328125l-22.765625 0l-4.484375 13.15625q-0.125 0.390625 -0.34375 0.671875q-0.203125 0.265625 -0.609375 0.453125q-0.390625 0.1875 -1.140625 0.265625q-0.734375 0.09375 -1.921875 0.09375q-1.21875 0 -2.015625 -0.109375q-0.78125 -0.09375 -1.09375 -0.390625q-0.3125 -0.296875 -0.296875 -0.859375q0.015625 -0.578125 0.359375 -1.515625l18.359375 -50.859375q0.171875 -0.46875 0.4375 -0.765625q0.28125 -0.296875 0.8125 -0.453125q0.53125 -0.171875 1.359375 -0.234375q0.828125 -0.0625 2.09375 -0.0625q1.359375 0 2.234375 0.0625q0.890625 0.0625 1.4375 0.234375q0.5625 0.15625 0.859375 0.484375q0.296875 0.3125 0.46875 0.78125l18.359367 50.859375zm-23.578117 -44.890625l-0.03125 0l-9.4375 27.28125l19.03125 0l-9.5625 -27.28125z" fill-rule="nonzero"/><path fill="#d9ead3" d="m27.64567 68.11183l0 -10.858143c0 1.1993599 9.9690075 2.1716309 22.266405 2.1716309c12.297394 0 22.2664 -0.97227097 22.2664 -2.1716309l0 10.858143l0 0c0 1.1993637 -9.969006 2.1716309 -22.2664 2.1716309c-12.297398 0 -22.266405 -0.97226715 -22.266405 -2.1716309z" fill-rule="evenodd"/><path stroke="#000000" stroke-width="1.0" stroke-linejoin="round" stroke-linecap="butt" d="m27.64567 68.11183l0 -10.858143c0 1.1993599 9.9690075 2.1716309 22.266405 2.1716309c12.297394 0 22.2664 -0.97227097 22.2664 -2.1716309l0 10.858143l0 0c0 1.1993637 -9.969006 2.1716309 -22.2664 2.1716309c-12.297398 0 -22.266405 -0.97226715 -22.266405 -2.1716309z" fill-rule="evenodd"/><path fill="#d9ead3" d="m27.64567 42.052288l0 -10.858147c0 1.1993599 9.9690075 2.1716309 22.266405 2.1716309c12.297394 0 22.2664 -0.97227097 22.2664 -2.1716309l0 10.858147l0 0c0 1.1993561 -9.969006 2.171627 -22.2664 2.171627c-12.297398 0 -22.266405 -0.97227097 -22.266405 -2.171627z" fill-rule="evenodd"/><path stroke="#000000" stroke-width="1.0" stroke-linejoin="round" stroke-linecap="butt" d="m27.64567 42.052288l0 -10.858147c0 1.1993599 9.9690075 2.1716309 22.266405 2.1716309c12.297394 0 22.2664 -0.97227097 22.2664 -2.1716309l0 10.858147l0 0c0 1.1993561 -9.969006 2.171627 -22.2664 2.171627c-12.297398 0 -22.266405 -0.97227097 -22.266405 -2.171627z" fill-rule="evenodd"/><path fill="#cfe2f3" d="m27.64567 55.08206l0 -10.858147c0 1.1993599 9.9690075 2.1716309 22.266405 2.1716309c12.297394 0 22.2664 -0.97227097 22.2664 -2.1716309l0 10.858147l0 0c0 1.1993561 -9.969006 2.171627 -22.2664 2.171627c-12.297398 0 -22.266405 -0.97227097 -22.266405 -2.171627z" fill-rule="evenodd"/><path stroke="#000000" stroke-width="1.0" stroke-linejoin="round" stroke-linecap="butt" d="m27.64567 55.08206l0 -10.858147c0 1.1993599 9.9690075 2.1716309 22.266405 2.1716309c12.297394 0 22.2664 -0.97227097 22.2664 -2.1716309l0 10.858147l0 0c0 1.1993561 -9.969006 2.171627 -22.2664 2.171627c-12.297398 0 -22.266405 -0.97227097 -22.266405 -2.171627z" fill-rule="evenodd"/><path fill="#cfe2f3" d="m27.64567 28.853018l0 0c0 -0.6181412 2.346056 -1.2109661 6.5220623 -1.6480598c4.1760063 -0.43709183 9.83989 -0.6826477 15.745655 -0.6826477l0 0c12.298119 0 22.267712 1.0434933 22.267712 2.3307076l0 0c0 1.2872162 -9.969593 2.3307095 -22.267712 2.3307095l0 0c-12.298122 0 -22.267717 -1.0434933 -22.267717 -2.3307095z" fill-rule="evenodd"/><path stroke="#000000" stroke-width="1.0" stroke-linejoin="round" stroke-linecap="butt" d="m27.64567 28.853018l0 0c0 -0.6181412 2.346056 -1.2109661 6.5220623 -1.6480598c4.1760063 -0.43709183 9.83989 -0.6826477 15.745655 -0.6826477l0 0c12.298119 0 22.267712 1.0434933 22.267712 2.3307076l0 0c0 1.2872162 -9.969593 2.3307095 -22.267712 2.3307095l0 0c-12.298122 0 -22.267717 -1.0434933 -22.267717 -2.3307095z" fill-rule="evenodd"/><path fill="#000000" fill-opacity="0.0" d="m18.675869 81.97404l27.559055 -42.456696" fill-rule="evenodd"/><path stroke="#000000" stroke-width="1.0" stroke-linejoin="round" stroke-linecap="butt" d="m18.675869 81.97404l27.559055 -42.456696" fill-rule="evenodd"/><path fill="#000000" fill-opacity="0.0" d="m46.23622 39.51706l7.5275574 23.748032" fill-rule="evenodd"/><path stroke="#000000" stroke-width="1.0" stroke-linejoin="round" stroke-linecap="butt" d="m46.23622 39.51706l7.5275574 23.748032" fill-rule="evenodd"/><path fill="#000000" fill-opacity="0.0" d="m53.5242 63.188694l27.622047 -43.685036" fill-rule="evenodd"/><path stroke="#000000" stroke-width="1.0" stroke-linejoin="round" stroke-linecap="butt" d="m53.5242 63.188694l25.790512 -40.788414" fill-rule="evenodd"/><path fill="#000000" stroke="#000000" stroke-width="1.0" stroke-linecap="butt" d="m79.31471 22.400276l0.3495102 1.5515232l0.7007446 -3.2125225l-2.6017761 2.0105038z" fill-rule="evenodd"/><path fill="#f4cccc" d="m44.317585 39.354332l0 0c0 -0.98280716 0.7967224 -1.7795296 1.7795296 -1.7795296l0 0c0.47195816 0 0.92458725 0.18748474 1.258316 0.52121353c0.33372498 0.33372498 0.5212097 0.78635406 0.5212097 1.258316l0 0c0 0.98280334 -0.7967224 1.7795258 -1.7795258 1.7795258l0 0c-0.98280716 0 -1.7795296 -0.7967224 -1.7795296 -1.7795258z" fill-rule="evenodd"/><path stroke="#000000" stroke-width="1.0" stroke-linejoin="round" stroke-linecap="butt" d="m44.317585 39.354332l0 0c0 -0.98280716 0.7967224 -1.7795296 1.7795296 -1.7795296l0 0c0.47195816 0 0.92458725 0.18748474 1.258316 0.52121353c0.33372498 0.33372498 0.5212097 0.78635406 0.5212097 1.258316l0 0c0 0.98280334 -0.7967224 1.7795258 -1.7795258 1.7795258l0 0c-0.98280716 0 -1.7795296 -0.7967224 -1.7795296 -1.7795258z" fill-rule="evenodd"/><path fill="#f4cccc" d="m51.952755 63.120735l0 0c0 -0.98280716 0.7967224 -1.7795296 1.7795296 -1.7795296l0 0c0.47195816 0 0.92458725 0.18748856 1.258316 0.52121353c0.33372498 0.33372498 0.5212097 0.78635406 0.5212097 1.258316l0 0c0 0.98280334 -0.7967224 1.7795258 -1.7795258 1.7795258l0 0c-0.98280716 0 -1.7795296 -0.7967224 -1.7795296 -1.7795258z" fill-rule="evenodd"/><path stroke="#000000" stroke-width="1.0" stroke-linejoin="round" stroke-linecap="butt" d="m51.952755 63.120735l0 0c0 -0.98280716 0.7967224 -1.7795296 1.7795296 -1.7795296l0 0c0.47195816 0 0.92458725 0.18748856 1.258316 0.52121353c0.33372498 0.33372498 0.5212097 0.78635406 0.5212097 1.258316l0 0c0 0.98280334 -0.7967224 1.7795258 -1.7795258 1.7795258l0 0c-0.98280716 0 -1.7795296 -0.7967224 -1.7795296 -1.7795258z" fill-rule="evenodd"/><path fill="#000000" fill-opacity="0.0" d="m99.543304 0l176.97638 0l0 100.0l-176.97638 0z" fill-rule="evenodd"/><path fill="#f3f3f3" d="m139.0433 66.23563q0.296875 0.90625 0.375 1.4375q0.078125 0.53125 -0.203125 0.8125q-0.28125 0.265625 -1.0 0.328125q-0.703125 0.0625 -1.9375 0.0625q-1.296875 0 -2.03125 -0.046875q-0.71875 -0.03125 -1.109375 -0.140625q-0.375 -0.125 -0.53125 -0.328125q-0.140625 -0.203125 -0.25 -0.53125l-2.203125 -6.59375l-12.34375 0l-2.078125 6.421875q-0.109375 0.34375 -0.28125 0.59375q-0.15625 0.234375 -0.53125 0.375q-0.359375 0.140625 -1.03125 0.1875q-0.671875 0.0625 -1.765625 0.0625q-1.171875 0 -1.828125 -0.078125q-0.65625 -0.078125 -0.921875 -0.359375q-0.25 -0.296875 -0.171875 -0.828125q0.078125 -0.546875 0.390625 -1.4375l10.125 -29.140625q0.15625 -0.4375 0.359375 -0.703125q0.203125 -0.265625 0.640625 -0.40625q0.453125 -0.140625 1.234375 -0.171875q0.78125 -0.046875 2.078125 -0.046875q1.5 0 2.390625 0.046875q0.890625 0.03125 1.375 0.171875q0.5 0.140625 0.71875 0.421875q0.21875 0.28125 0.375 0.765625l10.15625 29.125zm-15.09375 -24.09375l-0.015625 0l-4.65625 13.953125l9.328125 0l-4.65625 -13.953125zm25.697266 25.71875q0 0.25 -0.15625 0.4375q-0.140625 0.1875 -0.515625 0.328125q-0.359375 0.125 -0.96875 0.1875q-0.609375 0.0625 -1.546875 0.0625q-0.953125 0 -1.5625 -0.0625q-0.609375 -0.0625 -0.984375 -0.1875q-0.359375 -0.140625 -0.515625 -0.328125q-0.140625 -0.1875 -0.140625 -0.4375l0 -33.390625q0 -0.25 0.140625 -0.453125q0.15625 -0.203125 0.515625 -0.34375q0.375 -0.140625 0.984375 -0.21875q0.609375 -0.078125 1.5625 -0.078125q0.9375 0 1.546875 0.078125q0.609375 0.078125 0.96875 0.21875q0.375 0.140625 0.515625 0.34375q0.15625 0.203125 0.15625 0.453125l0 33.390625zm27.302734 -11.984375q0 1.15625 -0.53125 1.71875q-0.515625 0.5625 -1.421875 0.5625l-13.796875 0q0 1.453125 0.34375 2.640625q0.34375 1.171875 1.09375 2.0q0.75 0.8125 1.921875 1.25q1.1875 0.4375 2.84375 0.4375q1.671875 0 2.9375 -0.234375q1.28125 -0.25 2.203125 -0.546875q0.921875 -0.296875 1.53125 -0.53125q0.609375 -0.25 1.0 -0.25q0.21875 0 0.375 0.09375q0.15625 0.09375 0.25 0.328125q0.109375 0.21875 0.140625 0.640625q0.046875 0.421875 0.046875 1.046875q0 0.5625 -0.03125 0.953125q-0.03125 0.390625 -0.078125 0.671875q-0.046875 0.28125 -0.15625 0.484375q-0.09375 0.1875 -0.265625 0.359375q-0.15625 0.171875 -0.90625 0.484375q-0.734375 0.296875 -1.875 0.59375q-1.140625 0.296875 -2.609375 0.5q-1.46875 0.21875 -3.15625 0.21875q-3.015625 0 -5.296875 -0.75q-2.265625 -0.765625 -3.796875 -2.3125q-1.515625 -1.546875 -2.265625 -3.90625q-0.75 -2.375 -0.75 -5.546875q0 -3.015625 0.78125 -5.4375q0.796875 -2.4375 2.296875 -4.125q1.5 -1.6875 3.640625 -2.5625q2.140625 -0.890625 4.84375 -0.890625q2.84375 0 4.859375 0.84375q2.015625 0.828125 3.3125 2.3125q1.296875 1.484375 1.90625 3.515625q0.609375 2.03125 0.609375 4.421875l0 1.015625zm-6.203125 -1.828125q0.078125 -2.703125 -1.078125 -4.234375q-1.15625 -1.53125 -3.5625 -1.53125q-1.21875 0 -2.125 0.453125q-0.890625 0.453125 -1.5 1.234375q-0.59375 0.765625 -0.90625 1.828125q-0.3125 1.046875 -0.375 2.25l9.546875 0zm30.31836 13.34375q0.203125 0.4375 0.1875 0.71875q0 0.28125 -0.359375 0.46875q-0.359375 0.171875 -1.09375 0.234375q-0.734375 0.0625 -1.953125 0.0625q-1.140625 0 -1.84375 -0.046875q-0.703125 -0.03125 -1.09375 -0.140625q-0.390625 -0.125 -0.578125 -0.28125q-0.1875 -0.171875 -0.296875 -0.421875l-4.1875 -8.046875l-4.1875 8.046875q-0.109375 0.25 -0.28125 0.421875q-0.171875 0.15625 -0.546875 0.28125q-0.375 0.109375 -1.03125 0.140625q-0.65625 0.046875 -1.71875 0.046875q-1.125 0 -1.78125 -0.0625q-0.65625 -0.0625 -0.96875 -0.234375q-0.296875 -0.1875 -0.3125 -0.46875q-0.015625 -0.28125 0.21875 -0.71875l6.265625 -11.140625l-5.78125 -10.453125q-0.234375 -0.46875 -0.25 -0.78125q-0.015625 -0.3125 0.3125 -0.484375q0.34375 -0.1875 1.0625 -0.265625q0.71875 -0.078125 1.96875 -0.078125q1.109375 0 1.78125 0.046875q0.671875 0.03125 1.046875 0.109375q0.390625 0.078125 0.5625 0.25q0.1875 0.15625 0.3125 0.40625l4.03125 7.5625l4.015625 -7.5625q0.078125 -0.203125 0.234375 -0.34375q0.15625 -0.15625 0.484375 -0.25q0.328125 -0.109375 0.890625 -0.15625q0.578125 -0.0625 1.5625 -0.0625q1.125 0 1.796875 0.0625q0.671875 0.046875 0.953125 0.21875q0.296875 0.171875 0.28125 0.5q0 0.3125 -0.28125 0.828125l-5.640625 10.28125l6.21875 11.3125zm31.892578 -15.578125q0 4.515625 -1.1875 7.734375q-1.171875 3.203125 -3.390625 5.234375q-2.203125 2.03125 -5.359375 2.984375q-3.15625 0.953125 -7.53125 0.953125l-7.84375 0q-0.84375 0 -1.421875 -0.484375q-0.5625 -0.5 -0.5625 -1.625l0 -28.640625q0 -1.109375 0.5625 -1.609375q0.578125 -0.5 1.421875 -0.5l8.421875 0q4.40625 0 7.453125 1.03125q3.0625 1.03125 5.15625 3.046875q2.09375 2.015625 3.1875 4.984375q1.09375 2.96875 1.09375 6.890625zm-6.90625 0.21875q0 -2.328125 -0.546875 -4.328125q-0.546875 -2.015625 -1.75 -3.484375q-1.203125 -1.46875 -3.09375 -2.296875q-1.890625 -0.828125 -4.96875 -0.828125l-3.375 0l0 22.34375l3.484375 0q2.734375 0 4.609375 -0.703125q1.890625 -0.71875 3.140625 -2.15625q1.25 -1.4375 1.875 -3.5625q0.625 -2.140625 0.625 -4.984375zm36.185547 6.828125q0 1.765625 -0.484375 3.1875q-0.484375 1.421875 -1.34375 2.515625q-0.84375 1.078125 -2.03125 1.875q-1.171875 0.78125 -2.59375 1.296875q-1.421875 0.5 -3.03125 0.75q-1.609375 0.234375 -3.59375 0.234375l-8.734375 0q-0.84375 0 -1.421875 -0.484375q-0.5625 -0.5 -0.5625 -1.625l0 -28.640625q0 -1.109375 0.5625 -1.609375q0.578125 -0.5 1.421875 -0.5l8.25 0q3.015625 0 5.109375 0.515625q2.109375 0.5 3.53125 1.53125q1.4375 1.03125 2.203125 2.609375q0.765625 1.5625 0.765625 3.703125q0 1.1875 -0.3125 2.25q-0.296875 1.046875 -0.890625 1.921875q-0.578125 0.859375 -1.4375 1.515625q-0.84375 0.65625 -1.9375 1.0625q1.40625 0.25 2.578125 0.890625q1.1875 0.640625 2.0625 1.640625q0.875 1.0 1.375 2.34375q0.515625 1.34375 0.515625 3.015625zm-8.640625 -13.828125q0 -1.0 -0.3125 -1.78125q-0.296875 -0.78125 -0.90625 -1.296875q-0.609375 -0.53125 -1.53125 -0.8125q-0.921875 -0.28125 -2.46875 -0.28125l-3.390625 0l0 8.53125l3.734375 0q1.453125 0 2.3125 -0.34375q0.859375 -0.34375 1.4375 -0.9375q0.578125 -0.59375 0.84375 -1.390625q0.28125 -0.796875 0.28125 -1.6875zm1.703125 14.0625q0 -1.140625 -0.390625 -2.03125q-0.375 -0.90625 -1.109375 -1.515625q-0.734375 -0.609375 -1.875 -0.9375q-1.140625 -0.34375 -2.96875 -0.34375l-3.96875 0l0 9.34375l4.828125 0q1.40625 0 2.34375 -0.28125q0.953125 -0.296875 1.65625 -0.859375q0.703125 -0.578125 1.09375 -1.421875q0.390625 -0.859375 0.390625 -1.953125z" fill-rule="nonzero"/></g></svg>